<svg xmlns="http://www.w3.org/2000/svg" viewBox="0 0 596 258.43"><defs><style>.cls-1{fill:#de4d27;}.cls-2{fill:#e87541;}.cls-3{fill:#e98859;opacity:0.6;}.cls-4{fill:#f9a21e;}.cls-5{fill:#f16024;}</style></defs><title>Asset 1</title><g id="Layer_2" data-name="Layer 2"><g id="Layer_1-2" data-name="Layer 1"><path class="cls-1" d="M596,25.19V233.12a25.09,25.09,0,0,1-25.08,25H25.07A25.07,25.07,0,0,1,0,233.08V25.23A25.08,25.08,0,0,1,25.08.15H570.92a25.09,25.09,0,0,1,25.08,25Z"/><path class="cls-2" d="M596,25.08V233.36a25.06,25.06,0,0,1-19.12,24.35A129.22,129.22,0,1,1,563.21,0a128.56,128.56,0,0,1,13.67.72A25.08,25.08,0,0,1,596,25.08Z"/><path class="cls-3" d="M570,258.15H287.54c18.36-36.83,74.63-63.64,141.21-63.64q11.92,0,23.35,1.12c56.12,5.42,101.7,30.08,117.87,62.51Z"/><circle class="cls-4" cx="543" cy="88.15" r="34"/><circle class="cls-5" cx="496" cy="88.15" r="34"/></g></g></svg>